0
SECTION
2
HEADER
0
ENDSEC
0
SECTION
2
TABLES
0
TABLE
2
LAYER
70
8
0
LAYER
2
BEAMS-MAIN-BARS
70
0
62
1
6
CONTINUOUS
0
LAYER
2
BEAMS-LINKS
70
0
62
3
6
CONTINUOUS
0
LAYER
2
COLUMNS-MAIN-BARS
70
0
62
2
6
CONTINUOUS
0
LAYER
2
COLUMNS-TIES
70
0
62
5
6
CONTINUOUS
0
LAYER
2
SLAB-BOT-BARS
70
0
62
4
6
CONTINUOUS
0
LAYER
2
SLAB-TOP-BARS
70
0
62
6
6
CONTINUOUS
0
LAYER
2
FOUNDATIONS
70
0
62
7
6
CONTINUOUS
0
LAYER
2
ANNOTATIONS
70
0
62
8
6
CONTINUOUS
0
ENDTAB
0
ENDSEC
0
SECTION
2
ENTITIES
0
TEXT
8
BEAMS-MAIN-BARS
10
0
20
0
30
0
40
2.5
1
@BBS mark=B1; member=Beam B101; section=Ground Floor; shape=00; dia=16; A=5800; B=0; C=0; D=0; n=3; each=4; rem=Bottom main bars
0
TEXT
8
BEAMS-MAIN-BARS
10
0
20
5
30
0
40
2.5
1
@BBS mark=B2; member=Beam B101; section=Ground Floor; shape=11; dia=16; A=4200; B=350; C=0; D=0; n=3; each=2; rem=Top hook bars
0
TEXT
8
BEAMS-MAIN-BARS
10
0
20
10
30
0
40
2.5
1
@BBS mark=B3; member=Beam B102; section=Ground Floor; shape=33; dia=20; A=3200; B=200; C=1800; D=0; n=2; each=3; rem=Cranked bottom bar
0
TEXT
8
BEAMS-LINKS
10
0
20
15
30
0
40
2.5
1
@BBS mark=L1; member=Beam B101; section=Ground Floor; shape=25; dia=8; A=250; B=500; C=0; D=0; n=3; each=28; rem=Links @200
0
TEXT
8
BEAMS-LINKS
10
0
20
20
30
0
40
2.5
1
@BBS mark=L2; member=Beam B102; section=Ground Floor; shape=25; dia=8; A=250; B=500; C=0; D=0; n=2; each=22; rem=Links @200
0
TEXT
8
COLUMNS-MAIN-BARS
10
0
20
25
30
0
40
2.5
1
@BBS mark=C1; member=Col C1; section=Ground Floor; shape=00; dia=20; A=3450; B=0; C=0; D=0; n=8; each=8; rem=Main vertical bars
0
TEXT
8
COLUMNS-MAIN-BARS
10
0
20
30
30
0
40
2.5
1
@BBS mark=C2; member=Col C2; section=First Floor; shape=00; dia=20; A=3450; B=0; C=0; D=0; n=6; each=8; rem=Main vertical bars
0
TEXT
8
COLUMNS-TIES
10
0
20
35
30
0
40
2.5
1
@BBS mark=T1; member=Col C1; section=Ground Floor; shape=25; dia=8; A=300; B=300; C=0; D=0; n=8; each=20; rem=Column ties @200
0
TEXT
8
COLUMNS-TIES
10
0
20
40
30
0
40
2.5
1
@BBS mark=T2; member=Col C2; section=First Floor; shape=25; dia=8; A=300; B=300; C=0; D=0; n=6; each=20; rem=Column ties @200
0
TEXT
8
SLAB-BOT-BARS
10
0
20
45
30
0
40
2.5
1
@BBS mark=S1; member=Slab S01; section=Ground Floor; shape=00; dia=12; A=6200; B=0; C=0; D=0; n=1; each=42; rem=Bot bars x-dir
0
TEXT
8
SLAB-BOT-BARS
10
0
20
50
30
0
40
2.5
1
@BBS mark=S2; member=Slab S01; section=Ground Floor; shape=00; dia=12; A=5800; B=0; C=0; D=0; n=1; each=38; rem=Bot bars y-dir
0
TEXT
8
SLAB-TOP-BARS
10
0
20
55
30
0
40
2.5
1
@BBS mark=S3; member=Slab S01; section=Ground Floor; shape=11; dia=10; A=1200; B=150; C=0; D=0; n=1; each=24; rem=Top L-bars edge
0
TEXT
8
SLAB-TOP-BARS
10
0
20
60
30
0
40
2.5
1
@BBS mark=S4; member=Slab S02; section=First Floor; shape=00; dia=12; A=6200; B=0; C=0; D=0; n=1; each=40; rem=Top bars x-dir
0
TEXT
8
FOUNDATIONS
10
0
20
65
30
0
40
2.5
1
@BBS mark=F1; member=Pad FND1; section=Foundation; shape=00; dia=16; A=2800; B=0; C=0; D=0; n=4; each=10; rem=Pad base bars
0
TEXT
8
FOUNDATIONS
10
0
20
70
30
0
40
2.5
1
@BBS mark=F2; member=Pad FND1; section=Foundation; shape=32; dia=16; A=400; B=2800; C=0; D=0; n=4; each=5; rem=U-bars perimeter
0
ENDSEC
0
EOF
